<?xml version="1.0" standalone="yes"?>
<svg xmlns="http://www.w3.org/2000/svg" width="799" height="784">
<path style="fill:#000000; stroke:none;" d="M652 120L654 118C651.871 106.241 639.673 96.9957 631 89.7538C606.862 69.5983 579.143 54.0572 550 42.3997C425.678 -7.33093 288.235 20.5428 185 102.801C120.476 154.214 74.0636 234.106 66.1698 317C61.0586 370.673 72.8611 423.649 90.3441 474C116.29 548.725 182.116 631.108 270 617.41C282.497 615.462 294.5 611.971 306 606.691C381.651 571.96 405.565 466.001 347.91 404C312.692 366.127 255.844 352.151 236.066 300C227.934 278.559 225.64 252.637 227.83 230C230.563 201.761 234.636 172.855 249.453 148C290.018 79.9518 382.023 47.8865 458 53.0895C503.792 56.2254 548.646 73.3731 590 92.3087C609.289 101.141 630.858 117.151 652 120M528 761C542.245 764.391 556.9 758.263 570 753.189C602.477 740.609 632.915 721.117 659 698.155C745.621 621.905 790.119 508.585 779.17 394C776.765 368.839 774.398 343.257 766.656 319C745.419 252.465 703.655 188.17 645 148.749C596.335 116.043 537.026 97.9711 479 92.169C400.206 84.2903 307.973 106.517 283.579 192C279.569 206.052 278.401 220.412 279.039 235C282.226 307.758 351.696 363.471 423 354.714C463.075 349.792 492.948 321.935 531 311.884C599.634 293.755 680.897 343.281 709.691 406C753.13 500.616 706.089 615.571 632 679.575C608.202 700.133 583.152 718.565 557 736C547.771 742.153 530.387 749.175 528 761M34 331C25.087 338.813 23.5646 352.968 21.5756 364C16.3122 393.193 17.5542 421.635 19.9144 451C30.9113 587.819 137.288 701.214 262 746.947C338.749 775.091 430.597 773.459 505 738.219C551.489 716.2 592.153 680.729 624.389 641C674.881 578.772 715.348 482.937 657.739 412C648.605 400.753 638.069 391.945 626 384.003C564.03 343.224 476.608 369.774 442.781 434C418.536 480.033 435.231 533.99 413.691 581C400.861 609.001 372.393 630.73 345 643.309C321.456 654.119 297.179 664.118 271 665.911C232.044 668.578 191.203 651.682 160 629.421C133.377 610.428 108.691 586.861 91.2292 559C63.7983 515.232 50.6535 465.073 45.1659 414C43.3079 396.708 42.2762 379.33 41.0895 362C40.3748 351.563 41.2868 340.427 36 331L34 331z"/>
</svg>
